<svg xmlns="http://www.w3.org/2000/svg" stroke-linecap="round" stroke-linejoin="round"
    stroke-miterlimit="10" clip-rule="evenodd" viewBox="0 0 300 300">
    <path
        d="M92.281 60.281c-1 0-1.48.197-2.125.906-1.064 1.16-3.954 6.393-5.437 9.907-.387.902-.808 1.895-.97 2.25-.999 2.224-1.262 3.094-2.874 9.187-.161.613-.523 1.94-.781 2.906-.258.967-.77 3.378-1.157 5.313-.354 1.966-.807 3.833-.968 4.187-.162.355-.462 1.288-.688 2.094-.193.806-.615 1.799-.937 2.25-.29.451-.684 1.174-.813 1.625-.129.452-.58 1.384-1 2.125-.419.709-.75 1.524-.75 1.78 0 .582-1.11 2.649-3.656 7-1.838 3.16-1.987 3.334-2.406 2.689-.42-.645-.452-.642-1-.094-.29.29-1.136 1.496-1.813 2.656-.677 1.129-2.153 3.025-3.281 4.25-1.096 1.193-2.423 2.758-2.906 3.532-.484.74-.966 1.434-1.063 1.53-.097.098-.699.97-1.344 1.938-1.386 2.096-2.316 4.702-3.218 9.344-.355 1.87-.685 3.798-.782 4.282-.129.515-.488 1.026-.875 1.187-.386.16-4.273 1.729-8.625 3.437-9.316 3.676-12.639 5.18-14.219 6.438-.612.516-1.878 1.3-2.781 1.719-1.128.516-1.687.956-1.687 1.375 0 .806.43.752 2.718-.344 3.063-1.451 6.683-2.974 6.844-2.812.097.064-.536.457-1.406.812-5.03 2.192-6.875 3.144-6.875 3.53 0 .324.446.38 2.187.22l2.188-.188-1.25.532c-.645.29-1.188.62-1.188.75 0 .258-2.831 1.46-4.25 1.75-1.096.258-1.189 1.053-.125 1.344 1 .225 2.907-.27 5.938-1.688 2.772-1.257 5.432-2.517 8.656-4a338.14 338.14 0 0 1 5.25-2.281 109.266 109.266 0 0 0 3.719-1.594c.354-.161 1.62-.643 2.781-1.063l2.125-.812.188 3.125c.096 1.709.338 6.048.5 9.594.193 3.546.434 7.04.53 7.78l.188 1.376-1.375.375c-7.77 2.095-14.115 4.142-17.5 5.625-.516.226-2.263.949-3.875 1.594-1.58.645-3.208 1.276-3.562 1.437-.355.16-1.92.824-3.531 1.469-1.58.645-3.208 1.276-3.563 1.437-.741.323-2.511 1.078-6.219 2.626-1.483.612-3.08 1.454-3.531 1.906-.87.806-.865.809-.156.906.419.064 1.622-.327 2.719-.875 2.61-1.225 9.05-3.906 9.437-3.906.613 0-.264.585-2.875 1.875-2.998 1.547-4.08 2.274-3.5 2.5.226.096.316.398.219.656-.258.74 1.192.529 3.094-.406.934-.452 1.778-.722 1.875-.625.225.258.187.287-1.844 1.125-3.288 1.354-4.183 1.799-4.344 2.218-.258.613 1.15.496 3.406-.374 3.353-1.258 9.49-4.063 18-8.157 6.448-3.127 7.057-3.396 10.312-4.75 2.644-1.064 6.643-2.437 7.094-2.437.323 0 .615 2.134.938 6.937.29 4.127.66 6.207 1.531 8.625.29.774.32 1.188.094 1.188-.162 0-.946.27-1.688.625-.741.322-2.158.924-3.125 1.343-2.224.968-13.283 6.542-16.28 8.25-6.803 3.837-8.922 5.298-8.438 5.782.129.16.671.099 1.187-.094.548-.193.969-.224.969-.062 0 .419.686.329 1.75-.22.483-.257 1.299-.468 1.75-.468.806 0 .8.018.187.438-.87.644-.321 1.01 1 .624.774-.257 1.122-.257 1.22 0 .064.226.828.168 2.343-.187 1.225-.29 2.49-.563 2.812-.563.677 0 3.391-1.121 7.97-3.281 1.869-.902 4.609-2.197 6.124-2.906a200.879 200.879 0 0 0 3.938-1.906l1.218-.594-.218 1c-.162.903-.143 1.006.437.813.484-.162.742-.02 1 .593.226.452.375 1.145.375 1.53 0 1.87 4.755 6.475 12.75 12.439 3.74 2.805 7.264 5.426 7.844 5.812 1.483 1.032 5.886 3.31 8.594 4.407 1.257.515 2.492 1.146 2.75 1.469.257.29.95.62 1.53.75.904.16 3.327 1.094 7.97 3.124 1.45.613 10.635 2.53 12.312 2.563.58 0 1.634.302 2.343.656 1.838.967 4.647 1.582 9.032 1.969 2.031.16 4.501.555 5.468.812.968.29 2.502.56 3.47.626.966.064 2.833.363 4.187.75 1.354.386 3.525.806 4.75 1a84.99 84.99 0 0 1 3.906.624c.903.162 2.798.282 4.281.282a52.04 52.04 0 0 1 4.844.375c1.193.193 4.416.432 7.156.593l17.563-.124c9.22-.903 15.541-1.763 17.25-2.376.451-.161 2.528-.854 4.656-1.531s4.447-1.55 5.156-1.97c.71-.385 1.825-.716 2.438-.75 1.483-.031 1.886-.236 3.562-1.655.774-.677 2.221-1.821 3.188-2.562 2.643-2.031 9.832-9.22 11.22-11.22.643-.966 2.663-3.495 4.436-5.655 0 0 1.89-3.084 3.22-3.907 1.33-.822 2.093.626 2.093.626 1.16.322 2.907.804 3.874 1.062 4.03 1.128 8.106 2.17 10.782 2.75.902.193 2.136.707 2.781 1.094 1.225.773 3.391 1.75 3.875 1.75.161 0 .281-.211.281-.47s.302-.5.657-.5c.354 0 .624-.18.624-.436.001-.452-1.13-.975-3.968-1.813-.677-.226-1.882-.887-2.688-1.5-1.386-1.064-3.755-2.261-7.656-3.937-.87-.387-1.504-.78-1.375-.876.097-.096.94.175 1.906.594 1.548.709 4.77 2.005 7.188 2.875.548.194 2.775 1.278 5 2.407 5.674 2.836 8.375 3.627 8.375 2.53 0-.29.296-.468.812-.468 1.483 0 .686-1.26-1.28-1.97-.614-.224-1.157-.586-1.157-.811 0-.194-.3-.616-.688-.907-.45-.322-.27-.293.375.094 2.257 1.258 3.076 1.656 3.656 1.656 1.097 0 .493-.934-1.312-2.062-1.418-.87-1.673-1.156-1.125-1.156 1.225 0 .798-.886-.78-1.563-1.774-.741-5.849-2.001-9.783-2.97-1.515-.385-2.869-.807-3.062-.936-.16-.13-1.428-.55-2.75-.97s-2.767-.87-3.219-1.03c-.709-.258-2.327-.64-4.906-1.156-.935-.161-1.144-.552-.53-.907.772-.483 2.108-4.23 3.655-10 1.032-3.804 2.042-6.331 2.72-6.718.16-.13 1.424.234 2.842.75 1.387.515 6.657 2.474 11.75 4.344 5.062 1.869 9.371 3.406 9.532 3.406.13.032.822.3 1.531.656s1.523.593 1.781.625c.581 0 4.576 1.526 7.188 2.719 2.192.999 2.468 1.022 2.468.28 0-1.063-5.253-3.642-10.25-5.093-.838-.258-.622-.781.313-.781.355 0 1.771.573 3.125 1.25 3.707 1.902 7.453 3.562 7.97 3.562.74 0 .565-.408-.564-1.343l-1.03-.844.874.156c.484.097.875.037.875-.156 0-.355-2.737-2.444-4.187-3.25-2.064-1.096-8.949-4.678-9.626-5a361.824 361.824 0 0 1-5.156-2.5c-2.708-1.29-4.465-2.006-4.594-1.813-.193.29-3.002-.441-4.968-1.343-.742-.323-3.838-1.324-6.063-1.97-1.773-.515-1.783-.48-.687-4.187a166.53 166.53 0 0 0 2.218-8.843c.323-1.42.683-2.714.844-2.875.258-.323 5.476.77 5.25 1.125-.193.354.736.625 2.22.625 2.352.032 7.562 1.355 15.718 4.03 4.964 1.613 10.111 2.7 10.562 2.282.42-.451-.9-1.154-4.125-2.25-1.87-.612-3.012-1.124-2.625-1.156 1.322 0 .606-.745-1.812-1.938-1.258-.612-2.312-1.246-2.344-1.374 0-.097.634-.128 1.375-.032 1.128.16 1.286.139 1.125-.312-.16-.42.342-.337 2.438.468 3.03 1.16 4.913 1.519 4.687.907-.226-.71-2.6-1.781-8.469-3.844-8.22-2.901-11.844-3.91-21-5.844-1.934-.387-1.975-.413-1.75-1.22.323-.998.784-9.006.688-11.811-.097-2.74-.863-6.186-2.282-10.312-3.965-11.477-4.3-12.163-7.718-17.063-2.257-3.192-2.954-4.028-4.469-5.156-.645-.452-.943-.871-.75-1 .193-.097.344-.701.344-1.281 0-1.097-.433-2.296-2.625-6.938a172.347 172.347 0 0 1-2.125-4.5c-.548-1.16-1.452-3.57-2-5.344a823.307 823.307 0 0 0-1.875-5.937c-.58-1.806-.846-3.312-.782-4.375.065-1.29-.045-1.794-.593-2.407-1.225-1.418-2.8-3.99-3.219-5.312-.58-1.773-1.727-3.6-3.5-5.438-1.967-2.063-3.435-2.781-5.562-2.781-1.58 0-5.11.86-5.626 1.375-.128.129-.492.219-.75.219-1.128 0-3.353 1.61-7.124 5.156-4.868 4.578-8.174 7.855-9.657 9.531-2.74 3.127-4.786 5.554-5.656 6.875a64.633 64.633 0 0 1-2.78 3.719c-1.033 1.257-2.329 3.126-2.845 4.125-.806 1.483-1.168 1.875-1.812 1.875-.42 0-.782.12-.782.281 0 .387-1.292.079-1.937-.437-.258-.226-2.548-.707-5.063-1.094-8.09-1.193-14.303-.85-23.78 1.406-3.515.839-7.222 1.335-12.25 1.625-3.064.194-5.098.594-8.064 1.626-.838.29-2.677.468-5.03.468h-3.72l-1.53-1.844a158.969 158.969 0 0 1-3.094-4c-.87-1.16-1.985-2.608-2.5-3.156-.516-.58-1.18-1.455-1.407-1.906-1.096-2.16-5.477-10.152-6.219-11.312-.45-.71-.843-1.372-.843-1.469 0-.387-5.459-8.42-6.813-10-.74-.87-2.55-2.798-3.968-4.281-2.418-2.45-2.714-2.656-3.906-2.656zm126.16 22.406c.282.08.506.24.812.563.709.676.774 1.123 1 5.25.129 2.482.37 5.826.531 7.406.161 1.612.313 4.138.313 5.718 0 3.74-.306 4.128-3.594 4.064-1.289-.034-2.947-.184-3.656-.345-.71-.193-2.005-.554-2.875-.812-.541-.167-1.56-.337-2.625-.47a29.559 29.559 0 0 0-1.719-.155c-1.515-.097-2.963-.339-3.156-.532-1.096-.837-.131-3.763 2.093-6.374.355-.42 1.379-1.715 2.282-2.876.935-1.16 1.897-2.396 2.187-2.718.258-.355.953-1.407 1.469-2.407 1.096-2.16 3.448-5.457 4.125-5.812.258-.161 1.01-.34 1.687-.469.5-.097.843-.112 1.126-.031zm-122.06 2.469c.58.149.998.967 1.563 2.531.483 1.322 1.266 3.25 1.75 4.281.451 1 1.204 2.749 1.656 3.813 1.257 2.933 3.693 8.021 4.531 9.343 1.193 1.903 1.162 3.547-.031 4.095-.903.418-2.049.448-3.532.061-.515-.129-3.378-.249-6.312-.28-6.996-.065-8.467-.284-9.531-1.25-.774-.71-.849-.955-.688-2.47.194-1.87.598-2.955 3.531-9.53 1.064-2.386 1.967-4.736 2.032-5.22.193-1.353.726-2.23 2.531-3.906 1.177-1.096 1.92-1.617 2.5-1.468zm120.44 3.531-.624 1.156c-.355.645-1.287 1.97-2.126 2.969-2.159 2.611-2.794 3.49-4.406 5.844l-1.375 2.093 1.969.376c1.096.225 2.842.617 3.906.843l3.813.531-.188-3.437c-.129-1.934-.399-5.035-.625-6.938l-.344-3.437zm-121.72 1.906c-.129 0-.792 1.416-1.469 3.156-.677 1.71-1.398 3.578-1.656 4.094-.806 1.806-2.406 6.08-2.406 6.531 0 .775 1.454 1 7.031 1l5.344-.343c-.162-.226-.613-.95-1.032-1.563-.967-1.418-2.48-4.625-3.125-6.656-.741-2.224-2.461-6.219-2.687-6.219zm117.13 40.937c.749.061 1.422.286 1.906.657.677.515 1.131.661 1.969.5 1.547-.29 2.367.236 2.625 1.687.129.645.369 1.367.562 1.625.194.258.375 1.844.375 3.875 0 3.675-.348 4.806-2.25 7.063-.451.548-1.054 1.661-1.312 2.5-.613 1.998-1.896 3.374-3.25 3.374-.548 0-1.454.211-1.938.47-1.225.644-3.48.613-4.125-.032-.29-.258-.5-.832-.5-1.219 0-.419-.387-1.017-1-1.469-.548-.419-1.361-1.532-1.812-2.5-.742-1.579-.817-2.07-.688-4.874.097-2.354.328-3.467.844-4.563.87-1.805 5.056-6.299 6.281-6.75a5.311 5.311 0 0 1 2.313-.344zm-101.44 3.563c.766.024 1.529.223 2.125.594.548.322 1.451.714 2.032.843.548.097 1.332.428 1.687.75 1.096.935 2.798 5.68 3.281 9 .484 3.385.268 4.532-1.344 6.563-.515.645-.937 1.52-.937 1.906 0 .903-1.736 2.578-4.219 4.125-1.418.87-5.562 1.27-6.594.656-.805-.516-1.124-.915-1.124-1.656 0-.322-.363-1.077-.782-1.625-1.354-1.805-1.769-2.972-2.156-5.938-.451-3.642-.051-5.695 1.625-8.5.677-1.128 1.309-2.453 1.437-2.937.258-1.096 1.62-2.732 2.813-3.313.629-.338 1.391-.492 2.156-.468zm48.313 26.094c.741 0 1.825.241 2.437.531l1.875.937c2.16 1.032 3.451 5.086 3.032 9.438-.226 2.418-.717 3.426-1.813 3.781-.419.13-.9.461-1.094.72-.516.74-3.857.831-5.469.186-.709-.29-1.853-.65-2.562-.843-3.192-.806-3.92-1.049-4.5-1.5-.838-.71-1.469-2.093-1.469-3.157 0-.999 1.109-3 1.625-3 .161 0 .313-.242.313-.5 0-.902.98-2.086 3.656-4.375 2.321-1.966 2.776-2.219 3.969-2.218zm106.97 1c.355-.033 5.891 1.36 7.438 1.874l.938.282h-1.126c-.612 0-1.637-.12-2.25-.25-1.289-.258-5.483-1.874-5-1.906zm4.657 24.281c.407.105.996.35 1.625.687.935.484.639.513-.844.094-.58-.16-1.152-.432-1.281-.625-.129-.21.093-.26.5-.156zm-105.06 3.72c1.032 0 1.648.73 2.938 3.405 1.547 3.256 2.164 3.975 3.937 4.781 2.708 1.193 3.476 1.421 6.313 1.97 4.481.805 5.014.717 7.594-1.314 5.706-4.513 5.943-4.637 6.781-4.25.87.387 1.198 1.313.843 2.313-.354.838-3.004 3.368-4.906 4.594-.773.515-1.497 1.028-1.594 1.124-.096.13-.849.52-1.687.907-1.354.612-1.925.661-4.375.5-3.804-.258-5.526-.678-8.75-2.03-2.611-1.065-7.489-4.563-7.844-5.627-.064-.225-1.054.435-2.344 1.563-5.222 4.578-7.68 6.085-12 7.406-1.547.451-2.963.965-3.124 1.094-.968.774-5.92 1.14-9.563.656-2.289-.29-3.608-1.22-7.219-5.219-3.03-3.352-3.687-4.48-3.687-6.124 0-1.967 2.019-2.916 3.437-1.594.355.322.897.686 1.219.718.355.097.77.717 1.125 1.813.322 1.096 1.149 2.486 2.406 3.97 2.128 2.546 2.892 2.905 6.438 2.905 2.063 0 3.335-.285 9.718-2.188.903-.257 2.77-1.25 4.188-2.218 3.417-2.32 3.241-2.197 5.562-4.969 3.257-3.9 3.595-4.187 4.594-4.187zm88.313 16.967c.612.097 1.307.278 1.469.406.193.13 1.186.55 2.25.97 1.063.418 2.056.902 2.25 1.03.419.42.337.393-3.532-1.187-1.934-.774-3.05-1.315-2.437-1.219zm-16.375 1.563c.516-.194 4.667 1.098 6.344 1.97.934.482.484.574-1.063.155-.516-.16-1.902-.523-3.063-.813-2.256-.548-3.024-1.022-2.218-1.312z"
        opacity=".986" />
    <style>
        path { fill: #38c4cb; }
        @media (prefers-color-scheme: dark) {
        path { fill: #FFF; }
        }
    </style>
</svg>